#!OML:ASF H:\ManfredETheater\Project 1\Capture day 1\Session 1\subject.ASF
:FULLY-SPECIFIED
:DEGREES
243
root 21.8155 17.5198 -42.6271 -183.343 16.3319 -175.854
lowerback 7.0363 2.07785 0.865542
upperback -0.847106 2.92539 1.24789
thorax -4.84739 1.44998 0.482467
lowerneck -16.1218 2.95427 3.42336
upperneck 27.0607 7.21424 -8.00313
head 11.9939 3.16426 -2.36063
rclavicle 2.78547e-014 8.34896e-015
rhumerus -24.5479 5.74669 -75.6513
rradius 92.1815
rwrist -4.27028
rhand -28.2573 6.73418
rfingers 7.12502
rthumb -1.63445 -23.2393
lclavicle 2.78547e-014 8.34896e-015
lhumerus -49.8797 33.0621 44.872
lradius 24.0181
lwrist -20.5304
lhand -19.9701 16.1157
lfingers 7.12502
lthumb 6.36864 45.9999
rfemur -8.06949 -13.1675 22.6978
rtibia 49.8713
rfoot -12.0148 -24.7766
rtoes -29.3457
lfemur -24.5805 -1.97456 -20.5736
ltibia 44.8903
lfoot -11.2032 -0.184438
ltoes 10.4267
244
root 21.8534 17.5365 -42.7229 -183.356 15.8961 -175.843
lowerback 6.87713 2.18283 0.983626
upperback -0.81652 3.06856 1.18989
thorax -4.71681 1.51752 0.347975
lowerneck -15.7974 3.14596 3.66436
upperneck 27.3359 7.68988 -8.34477
head 12.0974 3.40565 -2.45636
rclavicle -3.56073e-014 -6.36111e-015
rhumerus -25.1695 4.98573 -76.0065
rradius 91.9381
rwrist -3.93077
rhand -28.3374 6.63925
rfingers 7.12502
rthumb -1.71175 -23.3336
lclavicle -3.56073e-014 -6.36111e-015
lhumerus -49.2996 32.6354 45.5709
lradius 24.2605
lwrist -20.2879
lhand -19.7596 16.2064
lfingers 7.12502
lthumb 6.5719 46.0844
rfemur -8.27709 -13.3373 22.6112
rtibia 50.7834
rfoot -11.0774 -24.7275
rtoes -28.8824
lfemur -24.1563 -2.12227 -20.5951
ltibia 44.7986
lfoot -11.4673 -0.40798
ltoes 10.2758
245
root 21.8913 17.5547 -42.8149 -183.354 15.458 -175.826
lowerback 6.73273 2.28818 1.08238
upperback -0.80845 3.21167 1.14587
thorax -4.61913 1.58574 0.238508
lowerneck -15.4424 3.3341 3.91809
upperneck 27.6078 8.17647 -8.69771
head 12.1994 3.65643 -2.55739
rclavicle 2.31957e-014 6.16232e-015
rhumerus -25.8684 4.22197 -76.3883
rradius 91.7196
rwrist -3.65869
rhand -28.4347 6.51761
rfingers 7.12502
rthumb -1.8057 -23.4545
lclavicle 2.31957e-014 6.16232e-015
lhumerus -48.6902 32.0541 46.4687
lradius 24.5911
lwrist -19.7003
lhand -19.5742 16.2819
lfingers 7.12502
lthumb 6.75092 46.1543
rfemur -8.5517 -13.4755 22.554
rtibia 51.6992
rfoot -10.0482 -24.7014
rtoes -28.1892
lfemur -23.7428 -2.30474 -20.5954
ltibia 44.6629
lfoot -11.7051 -0.619956
ltoes 10.2127
246
root 21.9292 17.5742 -42.9044 -183.371 14.9995 -175.864
lowerback 6.60411 2.38622 1.10738
upperback -0.790196 3.33823 1.09413
thorax -4.52282 1.64754 0.164229
lowerneck -15.1576 3.53205 4.17383
upperneck 27.9071 8.68297 -9.03048
head 12.332 3.91721 -2.64748
rclavicle -3.4924e-014 -9.54166e-015
rhumerus -26.5691 3.46835 -76.7988
rradius 91.505
rwrist -3.46656
rhand -28.5545 6.38368
rfingers 7.12502
rthumb -1.92146 -23.5874
lclavicle -3.4924e-014 -9.54166e-015
lhumerus -48.0299 31.3695 47.5401
lradius 24.9988
lwrist -18.8111
lhand -19.4038 16.3427
lfingers 7.12502
lthumb 6.9154 46.2098
rfemur -8.85903 -13.6227 22.4395
rtibia 52.6204
rfoot -8.95906 -24.6779
rtoes -27.2858
lfemur -23.3071 -2.52071 -20.6504
ltibia 44.471
lfoot -11.9164 -0.827053
ltoes 10.2724
247
root 21.9668 17.595 -42.991 -183.394 14.5246 -175.947
lowerback 6.49998 2.47596 1.07329
upperback -0.789331 3.44907 1.03636
thorax -4.46127 1.70251 0.117232
lowerneck -14.8599 3.72863 4.42612
upperneck 28.2036 9.19685 -9.34628
head 12.4652 4.18569 -2.72955
rclavicle 2.23633e-016 -7.15625e-015
rhumerus -27.3065 2.75121 -77.2336
rradius 91.2907
rwrist -3.35154
rhand -28.6926 6.23279
rfingers 7.12502
rthumb -2.05484 -23.7371
lclavicle 2.23633e-016 -7.15625e-015
lhumerus -47.3776 30.5569 48.7352
lradius 25.4787
lwrist -17.6574
lhand -19.254 16.3414
lfingers 7.12502
lthumb 7.05995 46.2036
rfemur -9.20601 -13.7806 22.2811
rtibia 53.5402
rfoot -7.80546 -24.6635
rtoes -26.2059
lfemur -22.8636 -2.75052 -20.7501
ltibia 44.2275
lfoot -12.1005 -1.04005
ltoes 10.4449
248
root 22.004 17.6169 -43.0759 -183.437 14.0231 -176.096
lowerback 6.41394 2.55674 0.972307
upperback -0.786027 3.54182 0.960329
thorax -4.41021 1.74965 0.0900332
lowerneck -14.5924 3.92651 4.66234
upperneck 28.504 9.71146 -9.6184
head 12.6075 4.4572 -2.79159
rclavicle -1.28713e-014 -5.56597e-015
rhumerus -28.0477 2.06032 -77.6899
rradius 91.0749
rwrist -3.30017
rhand -28.8387 6.06236
rfingers 7.12502
rthumb -2.19596 -23.9061
lclavicle -1.28713e-014 -5.56597e-015
lhumerus -46.7174 29.6444 50.0349
lradius 26.0274
lwrist -16.2988
lhand -19.1103 16.278
lfingers 7.12502
lthumb 7.1987 46.1356
rfemur -9.5655 -13.977 22.0434
rtibia 54.4514
rfoot -6.62194 -24.6341
rtoes -24.9298
lfemur -22.3952 -2.99127 -20.9218
ltibia 43.9317
lfoot -12.2531 -1.26239
ltoes 10.6556
249
root 22.0405 17.6394 -43.1589 -183.49 13.4946 -176.274
lowerback 6.33708 2.62753 0.846899
upperback -0.77949 3.61907 0.871321
thorax -4.36173 1.78946 0.0644873
lowerneck -14.3503 4.12266 4.87241
upperneck 28.8083 10.2214 -9.83765
head 12.756 4.72917 -2.82893
rclavicle 1.96051e-014 -3.97569e-015
rhumerus -28.7787 1.39531 -78.163
rradius 90.8369
rwrist -3.29605
rhand -28.9853 5.89226
rfingers 7.12502
rthumb -2.33752 -24.0747
lclavicle 1.96051e-014 -3.97569e-015
lhumerus -46.0629 28.6436 51.4099
lradius 26.6438
lwrist -14.8011
lhand -18.9509 16.1586
lfingers 7.12502
lthumb 7.35257 46.0108
rfemur -9.92776 -14.2214 21.7627
rtibia 55.3469
rfoot -5.41424 -24.5777
rtoes -23.6143
lfemur -21.9077 -3.23383 -21.1291
ltibia 43.5923
lfoot -12.372 -1.50552
ltoes 10.8697
